<?xml version="1.0" encoding="utf-8"?>
<!-- Generator: Adobe Illustrator 16.0.0, SVG Export Plug-In . SVG Version: 6.00 Build 0)  -->
<!DOCTYPE svg PUBLIC "-//W3C//DTD SVG 1.1//EN" "http://www.w3.org/Graphics/SVG/1.1/DTD/svg11.dtd">
<svg version="1.1" id="Layer_1" xmlns="http://www.w3.org/2000/svg" xmlns:xlink="http://www.w3.org/1999/xlink" x="0px" y="0px"
	 width="273.58px" height="42.972px" viewBox="0 0 273.58 42.972" enable-background="new 0 0 273.58 42.972" xml:space="preserve">
<g>
	<path fill="#FFFFFF" d="M13.593,37.787h18.402v4.185H6.886v-3.956l18.058-21.842H8.262V11.99h23.218v4.127L13.593,37.787z"/>
	<path fill="#FFFFFF" d="M48.849,11.129c9.574,0,13.931,8.083,13.931,15.823c0,7.739-4.357,15.822-13.931,15.822
		s-13.931-8.083-13.931-15.822C34.918,19.213,39.275,11.129,48.849,11.129z M48.849,38.417c7.223,0,8.714-7.453,8.714-11.465
		c0-4.013-1.491-11.466-8.714-11.466s-8.714,7.453-8.714,11.466C40.135,30.965,41.625,38.417,48.849,38.417z"/>
	<path fill="#FFFFFF" d="M92.932,41.972h-5.044V22.366c0-4.07-1.146-6.707-5.962-6.707c-4.127,0-8.37,2.408-8.37,9.975v16.338
		h-5.045V0.811h5.045v15.192h0.115c1.433-1.892,3.956-4.873,8.771-4.873c4.644,0,10.491,1.892,10.491,10.434V41.972z"/>
	<path fill="#FFFFFF" d="M100.212,21.104c0.229-7.166,4.988-9.975,12.383-9.975c2.408,0,11.122,0.688,11.122,8.37v17.255
		c0,1.261,0.63,1.777,1.663,1.777c0.458,0,1.089-0.115,1.662-0.229v3.669c-0.86,0.229-1.605,0.573-2.751,0.573
		c-4.472,0-5.16-2.293-5.332-4.586c-1.949,2.121-4.987,4.873-10.835,4.873c-5.503,0-9.401-3.497-9.401-8.656
		c0-2.522,0.745-8.37,9.115-9.402l8.312-1.032c1.204-0.115,2.637-0.573,2.637-3.554c0-3.153-2.293-4.873-7.051-4.873
		c-5.733,0-6.535,3.497-6.879,5.79H100.212z M118.671,26.666c-0.803,0.63-2.064,1.089-8.312,1.892
		c-2.465,0.344-6.42,1.089-6.42,4.873c0,3.268,1.662,5.217,5.446,5.217c4.701,0,9.287-3.038,9.287-7.051V26.666z"/>
	<path fill="#FFFFFF" d="M137.989,41.972h-5.045V11.99h4.758v4.987h0.115c2.006-3.497,4.644-5.848,8.427-5.848
		c0.631,0,0.917,0.058,1.318,0.172v5.217h-1.892c-4.701,0-7.682,3.669-7.682,8.025V41.972z"/>
	<path fill="#FFFFFF" d="M159.83,16.174v19.491c0,2.351,2.006,2.351,3.038,2.351h1.777v3.956c-1.835,0.172-3.268,0.401-3.784,0.401
		c-4.987,0-6.076-2.809-6.076-6.421V16.174h-4.07V11.99h4.07V3.62h5.045v8.37h4.815v4.185H159.83z"/>
	<path fill="#FFFFFF" d="M180.639,11.129c9.574,0,13.931,8.083,13.931,15.823c0,7.739-4.356,15.822-13.931,15.822
		c-9.573,0-13.93-8.083-13.93-15.822C166.709,19.213,171.066,11.129,180.639,11.129z M180.639,38.417
		c7.224,0,8.714-7.453,8.714-11.465c0-4.013-1.49-11.466-8.714-11.466c-7.223,0-8.713,7.453-8.713,11.466
		C171.926,30.965,173.417,38.417,180.639,38.417z"/>
	<path fill="#FFFFFF" d="M219.85,41.972v-4.357l-0.114-0.115c-2.121,3.497-4.701,5.332-9.517,5.332
		c-4.414,0-9.745-2.121-9.745-9.287V11.99h5.045v19.892c0,4.93,2.522,6.593,5.79,6.593c6.363,0,8.255-5.618,8.255-9.975V11.99h5.045
		v29.982H219.85z"/>
	<path fill="#FFFFFF" d="M237.908,41.972h-5.045V11.99h4.759v4.987h0.114c2.007-3.497,4.644-5.848,8.427-5.848
		c0.631,0,0.918,0.058,1.318,0.172v5.217h-1.892c-4.7,0-7.682,3.669-7.682,8.025V41.972z"/>
	<path fill="#FFFFFF" d="M267.144,20.531c-0.058-1.892-0.746-5.045-7.109-5.045c-1.548,0-5.962,0.516-5.962,4.242
		c0,2.465,1.548,3.039,5.446,4.013l5.045,1.261c6.249,1.548,8.427,3.841,8.427,7.911c0,6.191-5.102,9.917-11.866,9.917
		c-11.867,0-12.727-6.879-12.899-10.491h4.873c0.172,2.35,0.86,6.134,7.969,6.134c3.611,0,6.879-1.433,6.879-4.758
		c0-2.408-1.662-3.21-5.962-4.3l-5.847-1.433c-4.186-1.032-6.938-3.153-6.938-7.281c0-6.592,5.446-9.574,11.352-9.574
		c10.72,0,11.465,7.912,11.465,9.402H267.144z"/>
</g>
</svg>
